<svg width="18" height="20" viewBox="0 0 18 20" fill="none" xmlns="http://www.w3.org/2000/svg">
<path fill-rule="evenodd" clip-rule="evenodd" d="M9.00005 0C9.26527 0 9.51962 0.105357 9.70716 0.292893C9.89469 0.48043 10 0.734784 10 1V1.962L10.654 1.616C10.8885 1.49201 11.1626 1.46624 11.4161 1.54435C11.6695 1.62245 11.8816 1.79805 12.0055 2.0325C12.1295 2.26695 12.1553 2.54105 12.0772 2.79451C11.9991 3.04797 11.8235 3.26001 11.589 3.384L10 4.224V6.126C10.715 6.31 11.352 6.686 11.854 7.197L13.502 6.246L13.435 4.45C13.4251 4.18492 13.5209 3.92674 13.7013 3.73226C13.8817 3.53779 14.132 3.42295 14.397 3.413C14.6621 3.40305 14.9203 3.49882 15.1148 3.67923C15.3093 3.85964 15.4241 4.10992 15.434 4.375L15.461 5.115L16.2941 4.634C16.4078 4.5673 16.5337 4.52377 16.6643 4.5059C16.795 4.48804 16.9279 4.49619 17.0554 4.5299C17.1829 4.56361 17.3025 4.62221 17.4072 4.70231C17.512 4.78242 17.5999 4.88246 17.6658 4.99667C17.7318 5.11088 17.7745 5.23701 17.7915 5.36779C17.8085 5.49857 17.7994 5.63142 17.7649 5.75869C17.7303 5.88597 17.6709 6.00515 17.5901 6.10937C17.5093 6.2136 17.4087 6.30082 17.2941 6.366L16.4611 6.846L17.088 7.24C17.1993 7.30986 17.2957 7.40095 17.3717 7.50806C17.4477 7.61517 17.5019 7.73621 17.5312 7.86426C17.5604 7.99231 17.5641 8.12487 17.5422 8.25437C17.5202 8.38387 17.4729 8.50777 17.403 8.619C17.3332 8.73023 17.2421 8.82661 17.135 8.90264C17.0279 8.97866 16.9068 9.03285 16.7788 9.0621C16.6507 9.09135 16.5182 9.09509 16.3887 9.07311C16.2592 9.05113 16.1353 9.00386 16.024 8.934L14.502 7.978L12.855 8.928C13.0499 9.62904 13.0499 10.37 12.855 11.071L14.502 12.022L16.024 11.066C16.2487 10.9249 16.5202 10.8788 16.7788 10.9379C17.0374 10.997 17.262 11.1564 17.403 11.381C17.5441 11.6056 17.5902 11.8771 17.5311 12.1357C17.4721 12.3944 17.3127 12.6189 17.088 12.76L16.462 13.153L17.2941 13.634C17.4087 13.6992 17.5093 13.7864 17.5901 13.8906C17.6709 13.9949 17.7303 14.114 17.7649 14.2413C17.7994 14.3686 17.8085 14.5014 17.7915 14.6322C17.7745 14.763 17.7318 14.8891 17.6658 15.0033C17.5999 15.1175 17.512 15.2176 17.4072 15.2977C17.3025 15.3778 17.1829 15.4364 17.0554 15.4701C16.9279 15.5038 16.795 15.512 16.6643 15.4941C16.5337 15.4762 16.4078 15.4327 16.2941 15.366L15.462 14.886L15.434 15.625C15.4241 15.8901 15.3093 16.1404 15.1148 16.3208C14.9203 16.5012 14.6621 16.5969 14.397 16.587C14.132 16.5771 13.8817 16.4622 13.7013 16.2677C13.5209 16.0733 13.4251 15.8151 13.435 15.55L13.502 13.754L11.854 12.803C11.352 13.313 10.714 13.69 10 13.874V15.776L11.589 16.616C11.8235 16.74 11.9991 16.952 12.0772 17.2055C12.1553 17.4589 12.1295 17.733 12.0055 17.9675C11.8816 18.202 11.6695 18.3775 11.4161 18.4557C11.1626 18.5338 10.8885 18.508 10.654 18.384L10 18.038V19C10 19.2652 9.89469 19.5196 9.70716 19.7071C9.51962 19.8946 9.26527 20 9.00005 20C8.73483 20 8.48048 19.8946 8.29294 19.7071C8.10541 19.5196 8.00005 19.2652 8.00005 19V18.038L7.34605 18.384C7.22996 18.4454 7.10292 18.4833 6.97217 18.4956C6.84142 18.5079 6.70954 18.4943 6.58404 18.4557C6.45854 18.417 6.34189 18.354 6.24074 18.2702C6.1396 18.1864 6.05594 18.0836 5.99455 17.9675C5.93316 17.8514 5.89523 17.7244 5.88294 17.5936C5.87064 17.4629 5.88422 17.331 5.92289 17.2055C5.96157 17.08 6.02459 16.9633 6.10834 16.8622C6.1921 16.761 6.29496 16.6774 6.41105 16.616L8.00005 15.776V13.874C7.29602 13.692 6.655 13.3214 6.14605 12.802L4.49805 13.754L4.56505 15.55C4.56991 15.6813 4.54887 15.8122 4.50313 15.9353C4.45739 16.0584 4.38784 16.1713 4.29847 16.2676C4.20909 16.3638 4.10163 16.4415 3.98222 16.4963C3.86282 16.551 3.7338 16.5816 3.60255 16.5865C3.47129 16.5914 3.34036 16.5703 3.21724 16.5246C3.09412 16.4788 2.98121 16.4093 2.88496 16.3199C2.78871 16.2305 2.71101 16.1231 2.65629 16.0037C2.60157 15.8843 2.57091 15.7553 2.56605 15.624L2.53905 14.885L1.70605 15.365C1.59221 15.4354 1.46539 15.4823 1.33311 15.5028C1.20083 15.5233 1.06578 15.517 0.935966 15.4844C0.80615 15.4517 0.684212 15.3933 0.57738 15.3127C0.470549 15.232 0.380999 15.1307 0.314038 15.0148C0.247077 14.8989 0.204069 14.7707 0.187563 14.6379C0.171057 14.5051 0.18139 14.3703 0.217948 14.2415C0.254506 14.1127 0.316545 13.9926 0.400389 13.8882C0.484232 13.7839 0.588173 13.6974 0.706049 13.634L1.53905 13.153L0.912049 12.759C0.693358 12.6153 0.539721 12.3915 0.484111 12.1358C0.4285 11.8801 0.475346 11.6128 0.614596 11.3912C0.753846 11.1696 0.974402 11.0115 1.22894 10.9507C1.48347 10.8899 1.75169 10.9313 1.97605 11.066L3.49805 12.022L5.14505 11.071C4.95052 10.3702 4.95052 9.62975 5.14505 8.929L3.49805 7.979L1.97605 8.934C1.75169 9.06871 1.48347 9.11011 1.22894 9.04931C0.974402 8.98851 0.753846 8.83036 0.614596 8.60879C0.475346 8.38722 0.4285 8.11989 0.484111 7.86417C0.539721 7.60846 0.693358 7.38473 0.912049 7.241L1.53905 6.847L0.706049 6.367C0.476239 6.23439 0.30852 6.01592 0.239788 5.75965C0.171056 5.50339 0.206941 5.23031 0.339549 5.0005C0.472157 4.77069 0.690626 4.60297 0.946894 4.53424C1.20316 4.46551 1.47624 4.50139 1.70605 4.634L2.53905 5.115L2.56605 4.375C2.57599 4.10992 2.69084 3.85964 2.88531 3.67923C2.98161 3.5899 3.09455 3.52041 3.2177 3.47473C3.34085 3.42905 3.47179 3.40808 3.60305 3.413C3.73431 3.41792 3.86331 3.44865 3.98269 3.50343C4.10207 3.55821 4.20949 3.63597 4.29882 3.73226C4.38815 3.82856 4.45764 3.9415 4.50332 4.06465C4.549 4.1878 4.56997 4.31874 4.56505 4.45L4.49805 6.246L6.14605 7.198C6.655 6.67863 7.29602 6.30799 8.00005 6.126V4.224L6.41105 3.384C6.1766 3.26001 6.001 3.04797 5.92289 2.79451C5.84479 2.54105 5.87056 2.26695 5.99455 2.0325C6.11854 1.79805 6.33058 1.62245 6.58404 1.54435C6.83749 1.46624 7.1116 1.49201 7.34605 1.616L8.00005 1.962V1C8.00005 0.734784 8.10541 0.48043 8.29294 0.292893C8.48048 0.105357 8.73483 0 9.00005 0ZM9.00005 12C9.53048 12 10.0392 11.7893 10.4143 11.4142C10.7893 11.0391 11 10.5304 11 10C11 9.46957 10.7893 8.96086 10.4143 8.58579C10.0392 8.21071 9.53048 8 9.00005 8C8.46962 8 7.96091 8.21071 7.58584 8.58579C7.21076 8.96086 7.00005 9.46957 7.00005 10C7.00005 10.5304 7.21076 11.0391 7.58584 11.4142C7.96091 11.7893 8.46962 12 9.00005 12Z" fill="#2B71AF"/>
</svg>
